<?xml version="1.0" encoding="UTF-8" standalone="no"?>
<svg
   xmlns:dc="http://purl.org/dc/elements/1.1/"
   xmlns:cc="http://creativecommons.org/ns#"
   xmlns:rdf="http://www.w3.org/1999/02/22-rdf-syntax-ns#"
   xmlns:svg="http://www.w3.org/2000/svg"
   xmlns="http://www.w3.org/2000/svg"
   xmlns:sodipodi="http://sodipodi.sourceforge.net/DTD/sodipodi-0.dtd"
   xmlns:inkscape="http://www.inkscape.org/namespaces/inkscape"
   version="1.1"
   x="0px"
   y="0px"
   viewBox="0 0 25 25"
   xml:space="preserve"
   id="svg2"
   inkscape:version="0.91 r13725"
   sodipodi:docname="so-icon.svg"
   width="25"
   height="25"><metadata
     id="metadata14"><rdf:RDF><cc:Work
         rdf:about=""><dc:format>image/svg+xml</dc:format><dc:type
           rdf:resource="http://purl.org/dc/dcmitype/StillImage" /><dc:title></dc:title></cc:Work></rdf:RDF></metadata><defs
     id="defs12" /><sodipodi:namedview
     pagecolor="#ffffff"
     bordercolor="#666666"
     borderopacity="1"
     objecttolerance="10"
     gridtolerance="10"
     guidetolerance="10"
     inkscape:pageopacity="0"
     inkscape:pageshadow="2"
     inkscape:window-width="1920"
     inkscape:window-height="1057"
     id="namedview10"
     showgrid="false"
     inkscape:snap-page="true"
     fit-margin-top="0"
     fit-margin-left="0"
     fit-margin-right="0"
     fit-margin-bottom="0"
     inkscape:zoom="1.9666667"
     inkscape:cx="175.42373"
     inkscape:cy="40.169492"
     inkscape:window-x="-8"
     inkscape:window-y="-8"
     inkscape:window-maximized="1"
     inkscape:current-layer="svg2" /><style
     type="text/css"
     id="style4">
	.st0{fill:#BCBBBB;}
	.st1{fill:#F48023;}
</style><g
     id="g4144"
     transform="scale(0.20833333,0.20833333)"><rect
       y="0"
       x="0"
       height="120"
       width="120"
       id="rect4142"
       style="opacity:1;fill:#ffffff;fill-opacity:1;stroke:none;stroke-width:5;stroke-linecap:round;stroke-linejoin:round;stroke-miterlimit:4;stroke-dasharray:none;stroke-dashoffset:0;stroke-opacity:1" /><polygon
       id="polygon6"
       points="22.6,70.6 30.3,70.6 30.3,93.8 84.4,93.8 84.4,70.6 92.1,70.6 92.1,101.5 22.6,101.5 "
       class="st0"
       style="fill:#bcbbbb" /><path
       id="path8"
       d="m 38.8,68.4 37.8,7.9 1.6,-7.6 -37.8,-7.9 -1.6,7.6 z m 5,-18 35,16.3 3.2,-7 -35,-16.4 -3.2,7.1 z M 53.5,33.2 83.2,57.9 88.1,52 58.4,27.3 53.5,33.2 Z m 19.2,-18.3 -6.2,4.6 23,31 6.2,-4.6 -23,-31 z M 38,86 l 38.6,0 0,-7.7 -38.6,0 0,7.7 z"
       class="st1"
       inkscape:connector-curvature="0"
       style="fill:#f48023" /></g></svg>